# xmcd CD database file
#
# Track frame offsets:
#	150
#	9381
#	19660
#	30906
#	43463
#	53439
#	64109
#	76361
#	87917
#	102467
#	113068
#
# Disc length: 1662 seconds
#
# Revision: 0
# Processed by: cddbd v1.5.2PL0 Copyright (c) Steve Scherf et al.
# Submitted via: CDex 1.51
#
DISCID=7d067c0b
DTITLE=Jann Browne - Buckin' Around
DYEAR=2007
DGENRE=Country
TTITLE0=Loves Gonna Live Here
TTITLE1=Before You Go
TTITLE2=Excuse Me (I Think Ive Got A Heartache)
TTITLE3=Play Together Again Again
TTITLE4=I Dont Care
TTITLE5=Think Of Me
TTITLE6=Loose Talk
TTITLE7=Hot Dog
TTITLE8=Sweethearts In Heaven
TTITLE9=Waitin In Your Welfare Line
TTITLE10=Jann Browne - Playgirl (Playboy)
EXTD=YEAR: 2007
EXTT0=
EXTT1=
EXTT2=
EXTT3=
EXTT4=
EXTT5=
EXTT6=
EXTT7=
EXTT8=
EXTT9=
EXTT10=
PLAYORDER=
